<svg xmlns="http://www.w3.org/2000/svg" xmlns:xlink="http://www.w3.org/1999/xlink" width="512" height="156" viewBox="0 0 512 156">
  <defs>
    <linearGradient id="linear-gradient" y1="-2.287" x2="1.002" y2="-2.287" gradientUnits="objectBoundingBox">
      <stop offset="0" stop-color="#ff0069"/>
      <stop offset="1" stop-color="#4707ff"/>
    </linearGradient>
  </defs>
  <g id="Сгруппировать_32" data-name="Сгруппировать 32" transform="translate(-1681 -4240)">
    <rect id="Прямоугольник_379" data-name="Прямоугольник 379" width="512" height="156" transform="translate(1681 4240)" fill="none"/>
    <g id="Huggy" transform="translate(1681 4282.485)">
      <path id="Контур_695" data-name="Контур 695" d="M7.1,0H35.613a7.09,7.09,0,1,1,0,14.179H7.1A7.09,7.09,0,1,1,7.1,0Zm128,42.671a7.09,7.09,0,1,0-7.1-7.09A7.09,7.09,0,0,0,135.1,42.671Zm-113.8,0a7.09,7.09,0,1,0-7.1-7.09A7.09,7.09,0,0,0,21.295,42.671Zm28.515,0H78.324a7.09,7.09,0,1,0,0-14.18H49.809a7.09,7.09,0,1,0,0,14.18Zm63.994-7.09a7.1,7.1,0,1,1-7.093-7.09A7.09,7.09,0,0,1,113.8,35.581ZM56.9,63.939a7.1,7.1,0,1,1-7.093-7.09A7.09,7.09,0,0,1,56.9,63.939Zm49.809-7.09H78.2a7.09,7.09,0,1,0,0,14.179h28.514a7.09,7.09,0,1,0,0-14.179ZM64,14.18H92.515A7.09,7.09,0,1,0,92.515,0H64A7.09,7.09,0,1,0,64,14.18ZM120.9,0h28.514a7.09,7.09,0,1,1,0,14.179H120.9A7.09,7.09,0,1,1,120.9,0Z" fill="url(#linear-gradient)"/>
      <path id="Контур_696" data-name="Контур 696" d="M419.878,6.04A31.289,31.289,0,0,1,436.7,10.5,23.237,23.237,0,0,1,447.081,23.24L436.7,26.916c-3.417-6.565-9.068-9.978-16.953-9.978a17.471,17.471,0,0,0-12.879,5.383,18.513,18.513,0,0,0-5.257,13.392A18.715,18.715,0,0,0,407,49.235a18.141,18.141,0,0,0,13.4,5.383,17.376,17.376,0,0,0,11.039-3.545,16.414,16.414,0,0,0,6.045-9.584H417.512v-10.5H448.79c.131,1.969.263,3.676.263,4.858,0,8.534-2.76,15.492-8.148,21.138s-12.353,8.4-20.764,8.4A29.452,29.452,0,0,1,398.72,56.85a28.4,28.4,0,0,1-8.674-21.138,28.316,28.316,0,0,1,8.674-21.007A28.872,28.872,0,0,1,419.878,6.04Zm-155.2,1.311V38.73c0,4.727,1.183,8.534,3.68,11.422a12.4,12.4,0,0,0,9.856,4.333,11.532,11.532,0,0,0,9.331-4.333q3.548-4.332,3.548-11.422V7.351h11.565V38.73h-.131q0,12.013-6.7,19.3c-4.468,4.858-10.382,7.352-17.741,7.352-7.491,0-13.536-2.494-18.135-7.352s-6.834-11.291-6.834-19.3V7.351Zm99.351,2.232a23.69,23.69,0,0,1,10.645,12.473L364.42,25.864c-3.548-6.565-9.331-9.716-17.216-9.584a17.21,17.21,0,0,0-12.747,5.646,18.4,18.4,0,0,0-4.994,13.523,18.421,18.421,0,0,0,5.651,13.392,19.311,19.311,0,0,0,24.444,1.444,15.774,15.774,0,0,0,5.782-9.716l-19.712.525-.263-10.5,31.146-.656c.263,1.969.263,3.545.394,4.858.131,8.534-2.365,15.624-7.753,21.269-5.257,5.646-12.09,8.665-20.5,8.8a29.624,29.624,0,0,1-21.684-8.14,29.011,29.011,0,0,1-9.2-20.875,28.973,28.973,0,0,1,8.279-21.269c5.651-5.908,12.616-8.8,21.027-9.059A31.832,31.832,0,0,1,364.026,9.584ZM196.206,7.351V30.459h27.2V7.351h11.565V64.2H223.41V40.831h-27.2V64.2H184.642V7.351Zm271.638,0,15.507,26.783L498.727,7.351H512l-22.867,38.6V64.2H477.569V46.214L455.1,7.351Z" fill="#050000"/>
    </g>
  </g>
</svg>
