<svg xmlns="http://www.w3.org/2000/svg" xmlns:xlink="http://www.w3.org/1999/xlink" width="512" height="156" viewBox="0 0 512 156">
  <defs>
    <linearGradient id="linear-gradient" x1="1" x2="0" y2="1" gradientUnits="objectBoundingBox">
      <stop offset="0.003" stop-color="#e44857"/>
      <stop offset="0.469" stop-color="#c711e1"/>
      <stop offset="1" stop-color="#7f52ff"/>
    </linearGradient>
  </defs>
  <g id="Сгруппировать_31" data-name="Сгруппировать 31" transform="translate(-2234 -4043)">
    <rect id="Прямоугольник_380" data-name="Прямоугольник 380" width="512" height="156" transform="translate(2234 4043)" fill="none"/>
    <g id="Kotlin" transform="translate(2234 4065.479)">
      <path id="Контур_697" data-name="Контур 697" d="M105.092,109.34H0V4.289H105.092l-52.546,52.5Z" fill="url(#linear-gradient)"/>
      <path id="Контур_698" data-name="Контур 698" d="M269.144,30.636a41.445,41.445,0,0,1,20.1,5.278A35.283,35.283,0,0,1,303.06,50.086a44.706,44.706,0,0,1,.336,41.507,35.877,35.877,0,0,1-13.836,14.172c-5.93,3.638-12.847,5.278-20.417,5.278a41.748,41.748,0,0,1-20.417-5.278,34.6,34.6,0,0,1-14.172-14.172,42.881,42.881,0,0,1-4.941-20.754,43.826,43.826,0,0,1,4.941-20.754,39.135,39.135,0,0,1,14.172-14.172C254.657,32.276,261.574,30.636,269.144,30.636ZM232.263,3.953,184.49,55.006l48.425,54.333H211.509L165.713,58.6V109.34h-16.8V4.289h16.8V52.714l45.46-48.761Zm36.587,41.78a20.05,20.05,0,0,0-11.859,3.3,20.9,20.9,0,0,0-7.906,8.894,27.845,27.845,0,0,0-2.965,13.184c0,4.941.652,9.231,2.628,13.184a25.779,25.779,0,0,0,7.906,8.894,21.471,21.471,0,0,0,11.859,3.3,19.7,19.7,0,0,0,11.523-3.3,20.9,20.9,0,0,0,7.906-8.894,28.752,28.752,0,0,0,2.965-13.184c0-4.941-.652-9.231-2.628-13.184a25.778,25.778,0,0,0-7.906-8.894A19.606,19.606,0,0,0,268.85,45.733ZM342.3,13.184H326.148V26.368c0,1.977-.336,3.617-1.64,4.6a6.5,6.5,0,0,1-4.6,1.64H312V46.448h13.836V87.955a25.837,25.837,0,0,0,2.628,11.523,16.8,16.8,0,0,0,7.57,7.57c3.3,1.977,6.918,2.628,11.523,2.628h12.511V95.189h-9.231a7.13,7.13,0,0,1-5.93-2.628,10.552,10.552,0,0,1-2.313-6.581V46.448H360.38V32.613H342.591V13.184ZM372.933,0H389.4V109.34H372.933Zm35.241.336h16.8V17.473h-16.8Zm0,32.276h16.464v77.042H408.174ZM508.661,45.124a23.559,23.559,0,0,0-9.883-10.534,27.8,27.8,0,0,0-14.824-3.953,31.336,31.336,0,0,0-15.812,4.289,29.828,29.828,0,0,0-8.894,9.231V32.3H443.436V109.34H459.9V66.172a24.2,24.2,0,0,1,2.313-11.207,21.056,21.056,0,0,1,6.581-7.57,20.544,20.544,0,0,1,10.219-2.628,15.486,15.486,0,0,1,8.894,2.313,14.59,14.59,0,0,1,5.593,6.266,21.375,21.375,0,0,1,1.977,9.546V109h16.464V60.915A30.451,30.451,0,0,0,508.661,45.124Z"/>
    </g>
    <g id="Kotlin-2" data-name="Kotlin" transform="translate(2234 4065.479)">
      <path id="Контур_697-2" data-name="Контур 697" d="M105.092,109.34H0V4.289H105.092l-52.546,52.5Z" fill="url(#linear-gradient)"/>
      <path id="Контур_698-2" data-name="Контур 698" d="M269.144,30.636a41.445,41.445,0,0,1,20.1,5.278A35.283,35.283,0,0,1,303.06,50.086a44.706,44.706,0,0,1,.336,41.507,35.877,35.877,0,0,1-13.836,14.172c-5.93,3.638-12.847,5.278-20.417,5.278a41.748,41.748,0,0,1-20.417-5.278,34.6,34.6,0,0,1-14.172-14.172,42.881,42.881,0,0,1-4.941-20.754,43.826,43.826,0,0,1,4.941-20.754,39.135,39.135,0,0,1,14.172-14.172C254.657,32.276,261.574,30.636,269.144,30.636ZM232.263,3.953,184.49,55.006l48.425,54.333H211.509L165.713,58.6V109.34h-16.8V4.289h16.8V52.714l45.46-48.761Zm36.587,41.78a20.05,20.05,0,0,0-11.859,3.3,20.9,20.9,0,0,0-7.906,8.894,27.845,27.845,0,0,0-2.965,13.184c0,4.941.652,9.231,2.628,13.184a25.779,25.779,0,0,0,7.906,8.894,21.471,21.471,0,0,0,11.859,3.3,19.7,19.7,0,0,0,11.523-3.3,20.9,20.9,0,0,0,7.906-8.894,28.752,28.752,0,0,0,2.965-13.184c0-4.941-.652-9.231-2.628-13.184a25.778,25.778,0,0,0-7.906-8.894A19.606,19.606,0,0,0,268.85,45.733ZM342.3,13.184H326.148V26.368c0,1.977-.336,3.617-1.64,4.6a6.5,6.5,0,0,1-4.6,1.64H312V46.448h13.836V87.955a25.837,25.837,0,0,0,2.628,11.523,16.8,16.8,0,0,0,7.57,7.57c3.3,1.977,6.918,2.628,11.523,2.628h12.511V95.189h-9.231a7.13,7.13,0,0,1-5.93-2.628,10.552,10.552,0,0,1-2.313-6.581V46.448H360.38V32.613H342.591V13.184ZM372.933,0H389.4V109.34H372.933Zm35.241.336h16.8V17.473h-16.8Zm0,32.276h16.464v77.042H408.174ZM508.661,45.124a23.559,23.559,0,0,0-9.883-10.534,27.8,27.8,0,0,0-14.824-3.953,31.336,31.336,0,0,0-15.812,4.289,29.828,29.828,0,0,0-8.894,9.231V32.3H443.436V109.34H459.9V66.172a24.2,24.2,0,0,1,2.313-11.207,21.056,21.056,0,0,1,6.581-7.57,20.544,20.544,0,0,1,10.219-2.628,15.486,15.486,0,0,1,8.894,2.313,14.59,14.59,0,0,1,5.593,6.266,21.375,21.375,0,0,1,1.977,9.546V109h16.464V60.915A30.451,30.451,0,0,0,508.661,45.124Z"/>
    </g>
  </g>
</svg>
