<svg xmlns="http://www.w3.org/2000/svg" width="512" height="156" viewBox="0 0 512 156">
  <g id="Сгруппировать_33" data-name="Сгруппировать 33" transform="translate(-2234 -4240)">
    <rect id="Прямоугольник_382" data-name="Прямоугольник 382" width="512" height="156" transform="translate(2234 4240)" fill="none"/>
    <g id="Nim" transform="translate(2234 4247.658)">
      <path id="Контур_699" data-name="Контур 699" d="M253.693,129.153V39.207h44.974c12.684,0,24.215,11.532,24.217,24.216v65.73H306.739V66.883h0a11.251,11.251,0,0,0-11.532-11.532H269.837v85.333Zm99.172,0V39.207h16.144v89.946Zm0-110.7h16.144V0L352.865,11.532Zm62.27,110.7H398.991V39.207h88.793C501.622,39.207,512,49.585,512,63.423v65.73l-16.144,11.532v-73.8c0-6.919-4.613-11.532-11.531-11.532H463.568v73.8H447.424v-73.8H415.135Z"/>
      <path id="Контур_700" data-name="Контур 700" d="M103.445,0S95.58,6.216,87.562,12.389c-8.248-.262-24.426,1.585-33.192,4.773C46.295,12.046,39.2,6.4,39.2,6.4S33.136,16.829,29.323,22.95A83.339,83.339,0,0,0,12.931,33.816C7.045,31.479.223,28.629,0,28.535,7.794,44.256,13.034,60,27.287,69.459c22.692-35.838,128.138-32.535,151.3-.2,14.968-7.807,20.789-24.6,26.676-40.111-.645.213-8.655,2.894-13.847,4.874-3.1-3.375-10.407-8.564-14.56-11.069-3.939-7.213-9.673-16.959-9.673-16.959s-6.791,5.051-14.661,10.561C141.887,14.59,129.025,12.2,118.208,12.8,110.845,6.742,103.445,0,103.445,0Z" fill="#f3d400"/>
      <path id="Контур_701" data-name="Контур 701" d="M8.059,61.944s11.047,26.748,18.719,45.334c32.51,42.891,115.528,45.873,151.72.83,8.564-19.3,20.119-46.425,20.119-46.425-9.285,13.755-24.4,23.25-33.7,28.365-6.613,3.623-21.872,5.813-21.872,5.813L102.983,75.1,62.693,95.446s-15.056-2.419-21.872-5.605C27.065,82.5,17.813,73.822,8.059,61.944Z" fill="#ffe953"/>
    </g>
  </g>
</svg>
